<?xml version="1.0" encoding="UTF-8"?> <svg xmlns="http://www.w3.org/2000/svg" width="750" height="500" viewBox="0 0 750 500" fill="none"> <g clip-path="url(#clip0)"> <path d="M541.952 427.683L541.935 427.616C541.216 424.769 541.795 421.916 543.099 419.236C544.403 416.556 546.428 414.063 548.576 411.955C549.524 411.025 550.511 410.119 551.503 409.21C551.638 409.087 551.772 408.963 551.907 408.84C553.032 407.807 554.156 406.764 555.215 405.679C557.335 403.509 559.212 401.155 560.36 398.324C561.976 394.341 561.971 389.84 561.967 385.458C561.966 384.799 561.966 384.143 561.97 383.492C562.008 378.476 562.368 373.738 565.416 370.045L541.952 427.683ZM541.952 427.683L541.932 427.749M541.952 427.683L541.932 427.749M541.932 427.749L529.71 468.45L547.152 467.94L547.152 467.94L547.164 467.94C561.562 468.256 571.114 460.924 577.66 450.199C579.525 447.131 581.184 443.857 581.424 440.338L581.424 440.337C581.721 436.226 580.074 432.323 578.378 428.345L578.339 428.253C576.665 424.328 574.958 420.326 575.204 416.077C575.496 411.014 578.419 406.866 581.527 402.815C581.8 402.458 582.076 402.102 582.35 401.746C585.214 398.04 588.065 394.35 589.179 389.996L589.179 389.996C590.247 385.83 589.608 381.543 588.862 377.18C588.819 376.929 588.775 376.678 588.732 376.426C588.025 372.324 587.307 368.16 587.975 364.058C588.676 359.738 590.844 355.859 592.974 352.049C593.483 351.138 593.991 350.23 594.475 349.321C600.661 337.655 603.629 324.56 603.08 311.377M541.932 427.749L603.08 311.377M603.08 311.377C592.635 322.431 585.305 336.055 581.843 350.863C581.777 351.147 581.712 351.434 581.647 351.721C581.044 354.382 580.417 357.145 578.855 359.427L578.855 359.427C577.196 361.842 574.706 363.411 572.216 364.915C572.082 364.996 571.947 365.078 571.812 365.159C569.444 366.586 567.112 367.991 565.416 370.045L603.08 311.377Z" fill="#EBF5FF" stroke="black" stroke-width="0.5"></path> <path d="M525.709 469.155C524.079 469.392 522.42 469.345 520.806 469.017C518.839 468.723 516.907 468.226 515.043 467.533C512.468 466.627 510.064 465.294 507.932 463.59C506.647 462.546 505.644 461.197 505.013 459.668C504.487 457.95 504.216 456.164 504.207 454.368C504.187 452.447 504.059 450.529 503.825 448.623C503.497 446.595 502.776 444.651 501.702 442.899C499.632 439.21 496.172 435.712 495.069 430.709C493.965 425.705 494.793 420.48 495.642 415.148C496.491 409.816 497.329 404.018 495.323 398.463C493.317 392.909 489.582 387.863 487.661 381.588C485.74 375.313 486.705 368.455 486.334 361.745C486.224 358.341 485.457 354.99 484.073 351.876C482.651 348.696 480.666 345.75 479.127 342.432C476.018 335.722 475.498 328.132 474.68 320.702C474.277 316.964 473.874 313.179 473.471 309.349C473.229 305.506 472.588 301.698 471.56 297.986C470.377 294.234 468.977 290.553 467.368 286.962C466.53 285.108 465.851 283.186 465.341 281.217C465.046 279.19 464.866 277.148 464.799 275.101C464.625 270.997 464.806 266.887 465.341 262.815C465.85 258.724 466.614 254.664 467.071 250.562C467.071 250.318 467.134 250.074 467.156 249.851L467.251 249.035L467.983 249.396C471.753 251.333 475.022 254.116 477.535 257.526C479.982 260.851 481.944 264.505 483.362 268.38C486.281 276.023 487.31 284.026 488.764 291.7C490.218 299.375 492.065 306.848 495.95 313.218C497.871 316.398 500.195 319.292 502.265 322.387C504.451 325.404 505.938 328.869 506.616 332.531C507.677 340.047 503.432 346.619 504.27 353.276C504.653 356.55 505.739 359.703 507.454 362.519C509.046 365.36 510.925 367.999 512.761 370.66C514.584 373.248 516.165 375.998 517.484 378.875C518.712 381.698 519.431 384.716 519.607 387.789C520.01 393.778 519.129 399.449 519.532 404.823C519.992 409.931 521.457 414.899 523.841 419.441C525.964 423.829 528.331 427.783 530.316 431.631C531.313 433.549 532.226 435.426 532.98 437.302C533.665 439.118 534.159 441.001 534.455 442.92C534.966 446.277 534.991 449.689 534.529 453.053C534.03 457.745 532.245 462.209 529.371 465.954C528.929 466.508 528.443 467.025 527.917 467.501C527.566 467.87 527.175 468.197 526.749 468.476C526.081 468.964 525.688 469.187 525.688 469.187C526.958 468.184 528.117 467.051 529.148 465.805C531.916 462.061 533.608 457.634 534.041 453C534.464 449.678 534.407 446.311 533.871 443.005C533.552 441.125 533.036 439.285 532.332 437.514C531.589 435.68 530.655 433.814 529.658 431.917C527.652 428.112 525.264 424.158 523.088 419.748C520.647 415.139 519.133 410.098 518.63 404.908C518.195 399.428 519.055 393.725 518.63 387.874C518.443 384.901 517.724 381.986 516.508 379.267C515.199 376.445 513.636 373.749 511.838 371.211C510.055 368.571 508.144 365.911 506.531 363.006C504.746 360.08 503.609 356.805 503.198 353.403C502.381 346.311 506.531 339.686 505.502 332.701C504.825 329.193 503.375 325.88 501.256 323.002C499.25 319.96 496.894 317.055 494.888 313.801C490.887 307.25 488.966 299.597 487.533 291.923C486.1 284.248 485.039 276.32 482.163 268.836C480.791 265.05 478.883 261.48 476.495 258.236C474.098 254.975 470.978 252.312 467.378 250.456L468.196 250C468.196 250.233 468.143 250.477 468.111 250.721C467.644 254.876 466.88 258.936 466.381 262.985C465.852 266.997 465.671 271.047 465.84 275.09C465.909 277.072 466.079 279.05 466.349 281.015C466.848 282.915 467.505 284.769 468.312 286.559C469.973 290.185 471.419 293.905 472.643 297.7C473.688 301.473 474.335 305.346 474.574 309.254C474.978 313.084 475.377 316.872 475.774 320.617C476.58 328.037 477.1 335.552 480.104 342.018C481.579 345.251 483.553 348.23 485.018 351.484C486.446 354.716 487.235 358.193 487.342 361.724C487.692 368.582 486.758 375.271 488.584 381.355C490.409 387.439 494.241 392.464 496.172 398.209C498.104 403.954 497.329 410.007 496.448 415.307C495.567 420.607 494.676 425.843 495.79 430.571C496.905 435.298 500.152 438.818 502.275 442.612C503.365 444.441 504.086 446.465 504.398 448.57C504.622 450.498 504.735 452.437 504.737 454.378C504.731 456.129 504.978 457.871 505.47 459.551C506.062 461.006 507.002 462.295 508.208 463.304C510.289 464.993 512.634 466.329 515.149 467.257C516.99 467.966 518.895 468.495 520.838 468.837C522.029 469.056 523.236 469.18 524.446 469.208C525.306 469.144 525.709 469.155 525.709 469.155Z" fill="black"></path> <mask id="path-5-inside-1" fill="white"> <path d="M522.589 469.197C511.01 462.233 507.794 441.288 512.719 428.716C517.643 416.144 526.176 404.686 527.577 391.266C528.639 380.952 525.317 370.331 527.79 360.261C531.111 346.661 544.484 336.189 544.41 322.186C544.41 314.331 539.931 306.922 540.334 299.078C540.823 289.453 548.263 281.864 552.901 273.405C559.98 260.473 560.532 245.124 563.015 230.591C565.499 216.059 571.113 200.509 584.083 193.428C585.919 205.787 589.124 214.267 588.01 230.994C587.606 237.004 580.58 248.474 579.519 261.639C578.903 269.504 578.458 277.39 577.938 285.266C577.428 292.93 576.876 300.732 574.096 307.887C571.973 313.377 568.534 318.349 566.942 324.02C563.928 334.673 567.738 346.28 565.297 357.06C563.174 366.218 556.806 374.02 555.48 383.348C553.591 396.397 561.975 410.007 557.602 422.441C555.416 428.61 550.3 433.539 548.815 439.91C547.668 444.86 548.815 450.107 547.817 455.078C546.14 463.081 530.836 469.208 522.631 468.667"></path> </mask> <path d="M522.589 469.197C511.01 462.233 507.794 441.288 512.719 428.716C517.643 416.144 526.176 404.686 527.577 391.266C528.639 380.952 525.317 370.331 527.79 360.261C531.111 346.661 544.484 336.189 544.41 322.186C544.41 314.331 539.931 306.922 540.334 299.078C540.823 289.453 548.263 281.864 552.901 273.405C559.98 260.473 560.532 245.124 563.015 230.591C565.499 216.059 571.113 200.509 584.083 193.428C585.919 205.787 589.124 214.267 588.01 230.994C587.606 237.004 580.58 248.474 579.519 261.639C578.903 269.504 578.458 277.39 577.938 285.266C577.428 292.93 576.876 300.732 574.096 307.887C571.973 313.377 568.534 318.349 566.942 324.02C563.928 334.673 567.738 346.28 565.297 357.06C563.174 366.218 556.806 374.02 555.48 383.348C553.591 396.397 561.975 410.007 557.602 422.441C555.416 428.61 550.3 433.539 548.815 439.91C547.668 444.86 548.815 450.107 547.817 455.078C546.14 463.081 530.836 469.208 522.631 468.667" fill="#EBF5FF"></path> <path d="M527.577 391.266L528.075 391.317L528.075 391.318L527.577 391.266ZM527.79 360.261L528.275 360.38L528.275 360.38L527.79 360.261ZM544.41 322.186L543.91 322.189V322.186H544.41ZM540.334 299.078L540.834 299.103L540.834 299.104L540.334 299.078ZM552.901 273.405L553.339 273.645L553.339 273.645L552.901 273.405ZM584.083 193.428L583.843 192.989L584.472 192.646L584.577 193.354L584.083 193.428ZM588.01 230.994L588.508 231.027L588.508 231.028L588.01 230.994ZM579.519 261.639L579.02 261.6L579.021 261.599L579.519 261.639ZM577.938 285.266L578.436 285.299L578.436 285.299L577.938 285.266ZM574.096 307.887L573.629 307.706L573.629 307.705L574.096 307.887ZM566.942 324.02L567.424 324.155L567.423 324.156L566.942 324.02ZM565.297 357.06L565.785 357.17L565.784 357.173L565.297 357.06ZM555.48 383.348L555.975 383.418L555.975 383.42L555.48 383.348ZM557.602 422.441L558.074 422.607L558.074 422.608L557.602 422.441ZM548.815 439.91L548.327 439.797L548.328 439.796L548.815 439.91ZM547.817 455.078L548.307 455.176L548.306 455.181L547.817 455.078ZM522.331 469.626C516.375 466.043 512.626 458.91 510.976 451.164C509.324 443.409 509.748 434.927 512.253 428.534L513.184 428.898C510.764 435.076 510.334 443.353 511.954 450.955C513.575 458.566 517.224 465.387 522.847 468.769L522.331 469.626ZM512.253 428.534C514.723 422.227 518.114 416.166 521.018 410.093C523.935 403.994 526.389 397.837 527.08 391.214L528.075 391.318C527.365 398.115 524.851 404.397 521.92 410.525C518.977 416.679 515.638 422.633 513.184 428.898L512.253 428.534ZM527.08 391.215C527.605 386.114 527.046 380.938 526.655 375.709C526.267 370.504 526.047 365.261 527.304 360.142L528.275 360.38C527.059 365.331 527.264 370.434 527.653 375.635C528.039 380.813 528.611 386.104 528.075 391.317L527.08 391.215ZM527.304 360.142C528.989 353.245 533.223 347.142 536.948 341.112C540.698 335.042 543.946 329.033 543.91 322.189L544.91 322.183C544.948 329.342 541.547 335.57 537.799 341.637C534.026 347.744 529.912 353.677 528.275 360.38L527.304 360.142ZM543.91 322.186C543.91 318.341 542.814 314.596 541.74 310.763C540.673 306.957 539.629 303.068 539.835 299.052L540.834 299.104C540.637 302.932 541.631 306.67 542.702 310.493C543.767 314.289 544.91 318.176 544.91 322.186H543.91ZM539.835 299.053C540.085 294.118 542.117 289.729 544.633 285.546C545.89 283.456 547.279 281.401 548.632 279.355C549.989 277.305 551.314 275.259 552.462 273.164L553.339 273.645C552.169 275.78 550.824 277.855 549.466 279.907C548.105 281.965 546.733 283.995 545.49 286.062C543.004 290.195 541.072 294.414 540.834 299.103L539.835 299.053ZM552.462 273.165C555.965 266.766 557.86 259.755 559.189 252.508C559.854 248.885 560.376 245.21 560.887 241.525C561.399 237.843 561.9 234.15 562.522 230.507L563.508 230.676C562.889 234.299 562.39 237.975 561.878 241.662C561.366 245.346 560.842 249.041 560.173 252.688C558.835 259.982 556.916 267.112 553.339 273.645L552.462 273.165ZM562.522 230.507C565.01 215.951 570.657 200.188 583.843 192.989L584.322 193.867C571.57 200.829 565.988 216.166 563.508 230.676L562.522 230.507ZM584.577 193.354C586.402 205.635 589.628 214.229 588.508 231.027L587.511 230.961C588.62 214.305 585.436 205.94 583.588 193.501L584.577 193.354ZM588.508 231.028C588.403 232.601 587.868 234.499 587.135 236.629C586.401 238.761 585.444 241.19 584.48 243.806C582.544 249.062 580.542 255.168 580.017 261.679L579.021 261.599C579.557 254.945 581.599 248.733 583.542 243.46C584.518 240.812 585.459 238.424 586.189 236.304C586.92 234.182 587.415 232.392 587.511 230.961L588.508 231.028ZM580.017 261.678C579.402 269.539 578.957 277.417 578.436 285.299L577.439 285.233C577.958 277.364 578.405 269.469 579.02 261.6L580.017 261.678ZM578.436 285.299C577.928 292.951 577.374 300.83 574.562 308.068L573.629 307.705C576.378 300.633 576.928 292.909 577.439 285.233L578.436 285.299ZM574.562 308.067C573.489 310.841 572.083 313.487 570.767 316.11C569.444 318.745 568.206 321.369 567.424 324.155L566.461 323.885C567.271 320.999 568.548 318.302 569.873 315.661C571.205 313.008 572.579 310.423 573.629 307.706L574.562 308.067ZM567.423 324.156C565.942 329.392 566.133 334.878 566.404 340.468C566.674 346.03 567.023 351.7 565.785 357.17L564.809 356.949C566.012 351.639 565.677 346.116 565.405 340.516C565.135 334.944 564.928 329.3 566.461 323.884L567.423 324.156ZM565.784 357.173C564.708 361.817 562.556 366.112 560.542 370.355C558.517 374.619 556.626 378.838 555.975 383.418L554.985 383.278C555.66 378.529 557.616 374.184 559.638 369.926C561.67 365.646 563.764 361.462 564.81 356.947L565.784 357.173ZM555.975 383.42C555.045 389.838 556.641 396.399 557.963 403.027C559.275 409.609 560.311 416.246 558.074 422.607L557.131 422.275C559.267 416.201 558.297 409.816 556.982 403.223C555.677 396.674 554.025 389.907 554.985 383.276L555.975 383.42ZM558.074 422.608C556.958 425.755 555.096 428.584 553.371 431.363C551.632 434.164 550.024 436.927 549.301 440.023L548.328 439.796C549.091 436.522 550.784 433.634 552.521 430.836C554.271 428.016 556.06 425.295 557.131 422.274L558.074 422.608ZM549.302 440.022C548.744 442.432 548.741 444.924 548.76 447.482C548.778 450.021 548.818 452.631 548.307 455.176L547.327 454.98C547.813 452.554 547.779 450.054 547.76 447.49C547.741 444.944 547.739 442.338 548.327 439.797L549.302 440.022ZM548.306 455.181C547.859 457.317 546.512 459.286 544.67 461.018C542.825 462.753 540.453 464.278 537.891 465.526C532.778 468.016 526.813 469.444 522.599 469.166L522.664 468.168C526.654 468.431 532.443 467.067 537.453 464.627C539.952 463.41 542.233 461.937 543.985 460.289C545.741 458.639 546.937 456.841 547.328 454.976L548.306 455.181Z" fill="black" mask="url(#path-5-inside-1)"></path> <path d="M580.793 205.671C580.818 205.903 580.818 206.138 580.793 206.371C580.718 206.89 580.633 207.558 580.517 208.395C580.241 210.176 579.922 212.794 579.307 216.186C578.691 219.578 576.855 223.405 575.422 228.026C573.989 232.648 572.419 237.937 571.081 243.926C569.744 249.915 568.577 256.455 567.367 263.536C566.157 270.617 564.851 278.376 561.285 285.69C559.64 289.39 557.793 293.11 556.393 297.032C555.032 301.087 554.187 305.296 553.877 309.562C553.174 318.618 551.983 327.631 550.311 336.56C546.649 354.845 543.168 372.25 539.995 388.108C536.652 403.891 533.627 418.116 531.112 430.094L525.019 458.375C524.298 461.65 523.725 464.226 523.311 466.049C523.12 466.876 522.96 467.533 522.844 468.042C522.802 468.272 522.735 468.496 522.642 468.71C522.644 468.478 522.673 468.247 522.727 468.021C522.823 467.502 522.939 466.844 523.088 466.007C523.449 464.163 523.948 461.576 524.584 458.28C525.953 451.517 527.906 441.839 530.316 429.925C532.725 418.01 535.654 403.7 538.912 387.853C542.171 372.006 545.514 354.59 549.133 336.316C550.806 327.401 552 318.403 552.71 309.36C553.039 305.028 553.912 300.754 555.31 296.64C556.753 292.612 558.621 288.902 560.277 285.235C563.811 277.974 565.085 270.394 566.38 263.335C567.674 256.275 568.821 249.672 570.232 243.714C571.644 237.757 573.193 232.436 574.764 227.814C576.335 223.193 578.097 219.334 578.818 216.07C579.54 212.805 579.88 210.112 580.241 208.353C580.4 207.515 580.527 206.858 580.623 206.339C580.655 206.111 580.712 205.887 580.793 205.671V205.671Z" fill="black"></path> <path d="M542.324 40.1792H422.341V165.109H542.324V40.1792Z" stroke="black" stroke-width="0.5"></path> <path d="M422.06 165.401H542.606V39.8975H422.06V165.401ZM542.531 165.327H422.134V39.9717H542.531V165.327Z" fill="#E0E0E0"></path> <path d="M526.128 57.0439H438.537V148.255H526.128V57.0439Z" stroke="black" stroke-width="0.5"></path> <path d="M526.378 149.109C526.996 150.036 527.727 150.884 528.554 151.632C529.955 153.116 531.929 155.13 534.147 157.303C536.365 159.476 538.392 161.426 539.899 162.804C540.665 163.606 541.519 164.317 542.447 164.924C541.842 164.005 541.129 163.162 540.324 162.412C538.912 160.928 536.928 158.914 534.709 156.73C532.491 154.547 530.464 152.596 528.946 151.218C528.173 150.421 527.311 149.713 526.378 149.109Z" fill="black"></path> <path d="M438.287 148.886C437.367 149.495 436.52 150.206 435.761 151.006C434.275 152.405 432.27 154.388 430.083 156.592C427.897 158.797 425.955 160.832 424.575 162.348C423.767 163.107 423.054 163.961 422.452 164.892C423.37 164.285 424.214 163.573 424.968 162.772C426.453 161.362 428.47 159.38 430.656 157.165C432.843 154.949 434.796 152.925 436.175 151.409C436.978 150.656 437.687 149.809 438.287 148.886V148.886Z" fill="#E0E0E0"></path> <path d="M438.531 57.0803C437.906 56.1586 437.176 55.3121 436.356 54.5575C434.944 53.0735 432.97 51.0701 430.752 48.8865C428.534 46.7029 426.506 44.7631 424.999 43.3851C424.237 42.5808 423.382 41.8692 422.452 41.2651C423.056 42.1846 423.769 43.028 424.575 43.7773C425.986 45.2613 427.961 47.2753 430.189 49.4589C432.418 51.6425 434.435 53.5929 435.952 54.9709C436.723 55.7761 437.589 56.4845 438.531 57.0803V57.0803Z" fill="black"></path> <path d="M526.622 57.2605C527.543 56.6531 528.391 55.9418 529.148 55.1405C530.634 53.7413 532.64 51.7697 534.826 49.5543C537.013 47.3389 538.955 45.3143 540.335 43.8091C541.144 43.0512 541.857 42.1968 542.457 41.2651C541.54 41.8729 540.696 42.5842 539.942 43.3851C538.456 44.7949 536.45 46.7771 534.253 48.9925C532.056 51.2079 530.114 53.2325 528.734 54.7589C527.931 55.5041 527.222 56.3442 526.622 57.2605Z" fill="black"></path> <path d="M496.782 88.2188H467.883V117.07H496.782V88.2188Z" stroke="black" stroke-width="0.5"></path> <path d="M239.122 210.095V102.147L82.2371 102.147V210.095H239.122Z" stroke="black" stroke-width="0.5"></path> <path d="M222.067 115.63H99.2715V196.633H222.067V115.63Z" stroke="black" stroke-width="0.5"></path> <path d="M99.0533 115.38H99.6689H101.42H108.191L133.6 115.476L222.348 115.645L221.998 115.295C221.998 140.195 221.998 167.787 221.998 196.778L222.38 196.396L99.0852 196.47L99.4035 196.778C99.3292 171.974 99.2762 151.643 99.2338 137.481C99.2338 130.4 99.1701 124.878 99.1595 121.083C99.1595 119.207 99.1595 117.776 99.1595 116.779C99.1595 115.783 99.1595 115.285 99.1595 115.285C99.1595 115.285 99.1595 115.751 99.1595 116.716C99.1595 117.68 99.1595 119.111 99.1595 120.956C99.1595 124.729 99.1594 130.231 99.0745 137.28C99.0745 151.484 98.9896 171.889 98.9153 196.767V197.074H99.0533L222.348 197.159H222.741V196.767C222.741 167.776 222.741 140.184 222.741 115.285V114.924H222.38L133.398 115.105L108.064 115.2H101.367H99.6583C99.2125 115.38 99.0533 115.38 99.0533 115.38Z" fill="black"></path> <path d="M239.362 101.6C238.391 102.069 237.482 102.657 236.655 103.349C235.053 104.515 232.856 106.158 230.489 108.045C228.122 109.932 226.042 111.734 224.577 113.069C223.731 113.744 222.972 114.52 222.317 115.38C222.465 115.539 226.254 112.423 230.977 108.66C235.7 104.897 239.5 101.78 239.362 101.6Z" fill="black"></path> <path d="M81.9765 101.908C81.8492 102.067 85.5532 105.225 90.2655 108.946C94.9778 112.667 98.8941 115.539 99.0215 115.38C99.1488 115.221 95.4554 112.052 90.7431 108.331C86.0308 104.611 82.072 101.738 81.9765 101.908Z" fill="#E0E0E0"></path> <path d="M82.072 210.367L99.6158 196.163Z" fill="white"></path> <path d="M99.6477 196.163C99.5203 195.993 95.4767 199.035 90.637 202.957C85.7973 206.879 81.9659 210.197 82.1463 210.377C82.3267 210.557 86.3174 207.494 91.1677 203.572C96.0179 199.65 99.7857 196.322 99.6477 196.163Z" fill="black"></path> <path d="M239.362 210.346C239.5 210.176 235.827 207.06 231.168 203.381C226.509 199.703 222.624 196.852 222.497 197.021C222.37 197.191 226.031 200.307 230.691 203.986C235.35 207.664 239.234 210.515 239.362 210.346Z" fill="#E0E0E0"></path> <path d="M197.03 167.812V141.028H119.946V167.812H197.03Z" stroke="black" stroke-width="0.5"></path> <mask id="path-25-inside-2" fill="white"> <path d="M225.999 416.42C228.536 419.886 233.312 418.614 235.488 416.42C237.663 414.226 238.534 411.12 239.319 408.099C241.123 401.283 242.938 394.117 241.336 387.249C240.933 385.164 239.968 383.229 238.544 381.652C237.825 380.876 236.914 380.302 235.902 379.99C234.89 379.677 233.814 379.636 232.781 379.871C230.372 380.56 228.929 382.966 227.889 385.235C224.835 391.947 223.32 399.254 223.452 406.625C223.516 410.049 223.993 413.632 225.999 416.42"></path> </mask> <path d="M225.999 416.42C228.536 419.886 233.312 418.614 235.488 416.42C237.663 414.226 238.534 411.12 239.319 408.099C241.123 401.283 242.938 394.117 241.336 387.249C240.933 385.164 239.968 383.229 238.544 381.652C237.825 380.876 236.914 380.302 235.902 379.99C234.89 379.677 233.814 379.636 232.781 379.871C230.372 380.56 228.929 382.966 227.889 385.235C224.835 391.947 223.32 399.254 223.452 406.625C223.516 410.049 223.993 413.632 225.999 416.42" fill="#EBF5FF"></path> <path d="M239.319 408.099L238.835 407.973L238.836 407.971L239.319 408.099ZM241.336 387.249L240.849 387.362L240.847 387.353L240.845 387.344L241.336 387.249ZM238.544 381.652L238.911 381.312L238.916 381.317L238.544 381.652ZM232.781 379.871L232.644 379.39L232.657 379.387L232.67 379.384L232.781 379.871ZM227.889 385.235L227.433 385.028L227.434 385.026L227.889 385.235ZM223.452 406.625L222.952 406.635L222.952 406.634L223.452 406.625ZM226.403 416.125C227.548 417.689 229.189 418.191 230.834 418.044C232.499 417.896 234.127 417.082 235.133 416.068L235.843 416.772C234.672 417.952 232.824 418.871 230.923 419.041C229.002 419.212 226.988 418.617 225.596 416.715L226.403 416.125ZM235.133 416.068C237.199 413.984 238.045 411.014 238.835 407.973L239.803 408.225C239.023 411.226 238.128 414.467 235.843 416.772L235.133 416.068ZM238.836 407.971C240.646 401.134 242.419 394.09 240.849 387.362L241.823 387.135C243.458 394.145 241.601 401.432 239.802 408.227L238.836 407.971ZM240.845 387.344C240.459 385.348 239.535 383.496 238.173 381.987L238.916 381.317C240.4 382.961 241.406 384.98 241.827 387.154L240.845 387.344ZM238.178 381.992C237.518 381.28 236.682 380.754 235.754 380.467L236.05 379.512C237.145 379.851 238.132 380.471 238.911 381.312L238.178 381.992ZM235.754 380.467C234.826 380.181 233.839 380.143 232.892 380.359L232.67 379.384C233.789 379.129 234.954 379.173 236.05 379.512L235.754 380.467ZM232.919 380.352C230.75 380.972 229.387 383.167 228.343 385.443L227.434 385.026C228.471 382.765 229.994 380.148 232.644 379.39L232.919 380.352ZM228.344 385.442C225.321 392.086 223.821 399.32 223.952 406.616L222.952 406.634C222.819 399.189 224.349 391.807 227.433 385.028L228.344 385.442ZM223.952 406.616C224.015 410.018 224.493 413.47 226.405 416.128L225.594 416.712C223.494 413.795 223.016 410.08 222.952 406.635L223.952 406.616Z" fill="black" mask="url(#path-25-inside-2)"></path> <path d="M248.814 432.334L248.814 432.334C251.222 432.682 253.677 433.383 255.294 435.038C256.087 435.851 256.58 437.027 256.651 438.191C256.721 439.35 256.373 440.465 255.531 441.196C254.385 442.005 252.995 442.391 251.596 442.289L251.587 442.288H251.577C251.041 442.288 250.489 442.276 249.93 442.264C248.686 442.237 247.406 442.209 246.182 442.312C244.399 442.461 242.679 442.887 241.255 444.017M248.814 432.334L248.85 432.087C251.27 432.436 253.796 433.147 255.473 434.864C257.15 436.581 257.532 439.803 255.685 441.393C254.49 442.24 253.038 442.645 251.577 442.538C251.029 442.538 250.471 442.526 249.909 442.514C246.87 442.448 243.721 442.379 241.41 444.213C240.824 444.672 240.315 445.241 239.808 445.807C238.956 446.76 238.112 447.704 236.92 448.103M248.814 432.334L248.807 432.333C244.362 431.551 239.783 432.211 235.741 434.216M248.814 432.334L231.221 440.302C230.713 442.213 230.956 444.245 231.9 445.983C232.392 446.834 233.149 447.501 234.055 447.884C234.961 448.266 235.967 448.343 236.92 448.103M241.255 444.017C241.255 444.017 241.255 444.017 241.255 444.017L241.41 444.213L241.256 444.016C241.256 444.016 241.255 444.016 241.255 444.017ZM241.255 444.017C240.65 444.49 240.12 445.083 239.61 445.654C239.44 445.844 239.273 446.031 239.106 446.21C238.425 446.941 237.733 447.565 236.85 447.863M236.85 447.863C236.853 447.862 236.856 447.862 236.859 447.861L236.92 448.103M236.85 447.863C236.847 447.864 236.844 447.865 236.841 447.866L236.92 448.103M236.85 447.863C235.952 448.087 235.005 448.014 234.152 447.653C233.297 447.292 232.583 446.663 232.118 445.861M232.118 445.861C232.119 445.862 232.12 445.863 232.12 445.864L231.9 445.983L232.117 445.858C232.117 445.859 232.118 445.86 232.118 445.861ZM232.118 445.861C231.206 444.18 230.972 442.214 231.463 440.366L231.466 440.353L231.468 440.339C231.662 439.059 232.149 437.84 232.891 436.778C233.632 435.717 234.607 434.84 235.741 434.216M235.741 434.216C235.74 434.217 235.738 434.218 235.737 434.218L235.626 433.995L235.746 434.214C235.745 434.214 235.743 434.215 235.741 434.216Z" fill="#EBF5FF" stroke="black" stroke-width="0.5"></path> <mask id="path-28-inside-3" fill="white"> <path d="M219.334 421.572C221.945 418.339 222.348 413.706 221.075 409.753C219.631 405.832 217.134 402.385 213.858 399.789C210.137 396.62 205.832 394.208 201.185 392.687C199.385 392.008 197.459 391.726 195.539 391.86C194.58 391.938 193.655 392.248 192.843 392.763C192.031 393.278 191.358 393.983 190.88 394.817C189.617 397.351 190.954 400.361 192.366 402.82C194.868 407.139 197.707 411.254 200.856 415.127C203.382 418.307 206.28 421.317 210.058 422.663C213.836 424.01 217.742 423.723 219.674 421.116"></path> </mask> <path d="M219.334 421.572C221.945 418.339 222.348 413.706 221.075 409.753C219.631 405.832 217.134 402.385 213.858 399.789C210.137 396.62 205.832 394.208 201.185 392.687C199.385 392.008 197.459 391.726 195.539 391.86C194.58 391.938 193.655 392.248 192.843 392.763C192.031 393.278 191.358 393.983 190.88 394.817C189.617 397.351 190.954 400.361 192.366 402.82C194.868 407.139 197.707 411.254 200.856 415.127C203.382 418.307 206.28 421.317 210.058 422.663C213.836 424.01 217.742 423.723 219.674 421.116" fill="#EBF5FF"></path> <path d="M221.075 409.753L221.544 409.58L221.548 409.59L221.551 409.599L221.075 409.753ZM213.858 399.789L213.547 400.181L213.54 400.175L213.534 400.169L213.858 399.789ZM201.185 392.687L201.03 393.162L201.019 393.158L201.009 393.155L201.185 392.687ZM195.539 391.86L195.499 391.361L195.504 391.361L195.539 391.86ZM190.88 394.817L190.432 394.594L190.439 394.581L190.446 394.569L190.88 394.817ZM192.366 402.82L191.933 403.071L191.932 403.069L192.366 402.82ZM200.856 415.127L201.244 414.811L201.248 414.816L200.856 415.127ZM218.945 421.258C221.426 418.186 221.834 413.74 220.599 409.906L221.551 409.599C222.863 413.673 222.464 418.491 219.723 421.886L218.945 421.258ZM220.606 409.925C219.194 406.091 216.752 402.72 213.547 400.181L214.168 399.397C217.517 402.05 220.069 405.573 221.544 409.58L220.606 409.925ZM213.534 400.169C209.862 397.043 205.615 394.663 201.03 393.162L201.341 392.211C206.049 393.753 210.411 396.197 214.182 399.408L213.534 400.169ZM201.009 393.155C199.276 392.502 197.422 392.23 195.574 392.359L195.504 391.361C197.496 391.223 199.494 391.515 201.362 392.219L201.009 393.155ZM195.58 392.358C194.702 392.43 193.855 392.714 193.111 393.185L192.575 392.341C193.456 391.782 194.459 391.446 195.499 391.361L195.58 392.358ZM193.111 393.185C192.368 393.657 191.751 394.303 191.314 395.066L190.446 394.569C190.964 393.664 191.695 392.9 192.575 392.341L193.111 393.185ZM191.327 395.04C190.767 396.164 190.769 397.417 191.104 398.722C191.44 400.033 192.1 401.353 192.799 402.571L191.932 403.069C191.22 401.828 190.505 400.414 190.135 398.971C189.764 397.523 189.729 396.004 190.432 394.594L191.327 395.04ZM192.798 402.57C195.288 406.865 198.112 410.958 201.244 414.811L200.468 415.442C197.303 411.549 194.449 407.412 191.933 403.071L192.798 402.57ZM201.248 414.816C203.764 417.983 206.588 420.896 210.226 422.192L209.89 423.134C205.972 421.738 203.001 418.63 200.465 415.438L201.248 414.816ZM210.226 422.192C213.936 423.514 217.542 423.154 219.272 420.818L220.076 421.413C217.942 424.293 213.737 424.505 209.89 423.134L210.226 422.192Z" fill="black" mask="url(#path-28-inside-3)"></path> <path d="M226.997 469.42C227.119 468.895 227.183 468.358 227.188 467.819C227.273 466.653 227.39 465.191 227.517 463.442C227.685 461.291 227.965 459.15 228.356 457.029C228.858 454.439 229.568 451.894 230.478 449.418C231.378 446.948 232.629 444.621 234.193 442.507C235.457 440.779 237.093 439.355 238.98 438.341C240.261 437.674 241.64 437.213 243.066 436.973C243.604 436.939 244.137 436.85 244.658 436.708C244.118 436.651 243.574 436.651 243.034 436.708C241.559 436.86 240.122 437.269 238.788 437.917C236.798 438.924 235.066 440.375 233.726 442.157C232.104 444.308 230.81 446.687 229.884 449.216C228.954 451.726 228.244 454.312 227.761 456.944C227.393 459.093 227.155 461.263 227.05 463.442C226.955 465.297 226.933 466.802 226.933 467.841C226.902 468.368 226.924 468.897 226.997 469.42V469.42Z" fill="#263238"></path> <path d="M227.231 466.091C227.261 465.845 227.261 465.596 227.231 465.349C227.231 464.788 227.231 464.088 227.177 463.229C227.177 461.385 227.071 458.724 227.103 455.428C227.103 448.845 227.485 439.75 228.366 429.744C229.247 419.738 230.489 410.717 231.699 404.251C231.985 402.629 232.272 401.166 232.537 399.884C232.802 398.601 233.015 397.499 233.227 396.598C233.439 395.697 233.556 395.071 233.683 394.531C233.749 394.292 233.785 394.047 233.79 393.799C233.679 394.021 233.597 394.256 233.545 394.499C233.397 395.029 233.206 395.707 232.983 396.545C232.76 397.382 232.463 398.527 232.176 399.809C231.89 401.092 231.55 402.544 231.242 404.156C229.605 412.598 228.425 421.122 227.708 429.691C226.827 439.719 226.53 448.835 226.647 455.428C226.647 458.724 226.806 461.396 226.933 463.24C227.008 464.099 227.061 464.798 227.114 465.36C227.115 465.608 227.155 465.855 227.231 466.091V466.091Z" fill="#263238"></path> <path d="M226.88 448.517C226.922 447.778 226.901 447.037 226.817 446.301C226.65 444.293 226.38 442.294 226.01 440.312C225.463 437.375 224.755 434.469 223.887 431.61C222.841 428.101 221.542 424.672 220.003 421.349C217.329 415.222 213.56 409.633 208.88 404.855C208.069 404.039 207.208 403.274 206.301 402.566C205.898 402.248 205.547 401.919 205.24 401.675L204.242 401.018C203.64 400.583 203.005 400.197 202.342 399.863C204.533 401.5 206.621 403.27 208.594 405.163C213.116 409.989 216.784 415.549 219.44 421.603C220.928 424.911 222.194 428.314 223.229 431.79C224.291 434.97 224.959 437.927 225.501 440.408C226.042 442.888 226.318 444.923 226.509 446.333C226.574 447.07 226.699 447.8 226.88 448.517Z" fill="#263238"></path> <path d="M205.271 253.594L192.132 237.694C192.132 237.694 188.831 216.165 189.288 213.133C190.255 209.099 191.467 205.127 192.918 201.24C193.008 200.982 193.04 200.707 193.013 200.435C192.985 200.163 192.898 199.9 192.757 199.665C192.616 199.431 192.425 199.23 192.198 199.077C191.971 198.924 191.713 198.823 191.442 198.781C189.054 198.389 185.149 198.781 182.113 204.537C179.333 209.837 177.868 216.981 177.167 221.635C177.074 222.203 176.859 222.744 176.538 223.222C176.216 223.701 175.796 224.104 175.305 224.406C174.814 224.707 174.263 224.9 173.691 224.97C173.119 225.041 172.538 224.988 171.988 224.815C165.951 222.901 159.787 221.41 153.542 220.352C149.944 219.939 145.89 223.362 145.105 225.928C144.51 227.857 147.535 231.546 147.535 231.546C147.535 231.546 144.404 232.775 143.29 234.991C143.141 235.277 143.003 235.552 142.886 235.828C142.508 236.73 142.371 237.714 142.49 238.685C142.609 239.655 142.98 240.578 143.566 241.361L144.393 242.421C144.393 242.421 140.573 243.068 139.904 245.156C139.494 246.689 139.376 248.285 139.554 249.862L142.685 253.805C141.646 254.603 140.9 255.721 140.562 256.985C140.191 258.925 144.945 264.299 144.945 264.299L169.048 273.437L177.539 281.524L205.271 253.594Z" fill="#F4BCA7"></path> <path d="M145.455 232.139C145.608 232.258 145.776 232.358 145.954 232.436L147.45 233.188L152.98 235.881L161.216 239.803C162.776 240.513 164.4 241.372 166.161 242.008C167.093 242.4 168.104 242.565 169.111 242.489C170.119 242.413 171.094 242.099 171.956 241.573C172.799 240.937 173.383 240.019 173.601 238.987C173.806 238.01 173.77 236.999 173.495 236.04C172.93 234.258 171.778 232.719 170.226 231.673C168.876 230.737 167.457 229.904 165.981 229.182L162.224 227.199L156.769 224.369L155.272 223.617C155.102 223.52 154.92 223.445 154.731 223.394C154.881 223.519 155.045 223.625 155.219 223.712L156.663 224.549L162.033 227.539L165.758 229.584C167.196 230.315 168.579 231.147 169.897 232.075C171.344 233.066 172.419 234.51 172.954 236.178C173.249 237.041 173.278 237.973 173.038 238.854C172.798 239.734 172.299 240.522 171.606 241.117C170.84 241.644 169.935 241.931 169.006 241.944C168.088 241.957 167.175 241.806 166.31 241.499C164.58 240.895 162.977 240.036 161.407 239.379L153.128 235.563L147.524 233.029L145.986 232.362C145.819 232.265 145.641 232.19 145.455 232.139V232.139Z" fill="#AA6550"></path> <path d="M142.833 243.121C143.197 243.364 143.585 243.57 143.99 243.735C144.754 244.096 145.858 244.594 147.249 245.177C150.008 246.354 153.882 247.869 158.223 249.343C159.283 249.724 160.364 250.046 161.46 250.307C162.509 250.559 163.605 250.537 164.644 250.244C165.524 249.952 166.304 249.416 166.892 248.7C167.48 247.983 167.852 247.114 167.966 246.195C168.09 244.959 167.729 243.724 166.957 242.75C166.752 242.493 166.517 242.262 166.257 242.061C166.077 241.933 165.97 241.88 165.96 241.891C165.949 241.902 166.321 242.209 166.788 242.877C167.436 243.835 167.719 244.993 167.584 246.142C167.454 246.97 167.096 247.747 166.551 248.385C166.006 249.023 165.294 249.498 164.495 249.756C163.528 250.006 162.512 250.006 161.545 249.756C160.467 249.491 159.404 249.169 158.361 248.792C154.02 247.329 150.146 245.877 147.355 244.795L144.033 243.513C143.647 243.342 143.245 243.211 142.833 243.121V243.121Z" fill="#AA6550"></path> <path d="M142.133 253.445C142.498 253.619 142.883 253.747 143.279 253.827L146.463 254.675C149.159 255.364 152.884 256.275 157.002 257.25C158.013 257.514 159.036 257.722 160.069 257.876C161.072 258.028 162.097 257.9 163.03 257.505C163.467 257.326 163.858 257.052 164.175 256.704C164.493 256.356 164.729 255.941 164.867 255.491C165.089 254.713 165.037 253.882 164.718 253.138C164.264 252.088 163.457 251.229 162.436 250.71C162.096 250.483 161.713 250.327 161.311 250.254C161.311 250.254 161.693 250.466 162.372 250.89C163.285 251.45 163.995 252.285 164.4 253.275C164.661 253.954 164.687 254.7 164.474 255.395C164.342 255.774 164.13 256.12 163.851 256.409C163.573 256.699 163.235 256.924 162.861 257.07C162.009 257.411 161.082 257.517 160.175 257.378C159.164 257.219 158.161 257.007 157.172 256.742C153.054 255.766 149.307 254.918 146.559 254.325L143.375 253.646C142.969 253.536 142.553 253.469 142.133 253.445V253.445Z" fill="#AA6550"></path> <path d="M142.504 262.815C143.686 262.973 144.879 263.033 146.07 262.995C148.267 262.995 151.313 262.995 154.667 262.995H157.13C157.91 263.025 158.69 262.957 159.454 262.794C160.189 262.637 160.848 262.233 161.322 261.649C161.527 261.387 161.67 261.083 161.74 260.757C161.81 260.432 161.805 260.096 161.725 259.773C161.59 259.334 161.362 258.93 161.056 258.588C160.75 258.246 160.374 257.974 159.953 257.791C159.661 257.631 159.329 257.56 158.997 257.589C158.997 257.642 159.337 257.685 159.857 257.982C160.221 258.178 160.54 258.447 160.796 258.771C161.051 259.096 161.238 259.469 161.343 259.868C161.396 260.132 161.39 260.404 161.324 260.665C161.258 260.925 161.134 261.167 160.961 261.374C160.531 261.847 159.963 262.173 159.337 262.306C158.605 262.433 157.861 262.483 157.119 262.455H154.667C151.313 262.455 148.299 262.54 146.07 262.603C144.878 262.584 143.686 262.655 142.504 262.815Z" fill="#AA6550"></path> <path d="M164.654 253.668C166.561 252.846 168.545 252.217 170.577 251.791C172.638 251.556 174.719 251.531 176.785 251.717C174.751 251.073 172.594 250.913 170.488 251.252C168.381 251.591 166.383 252.418 164.654 253.668V253.668Z" fill="#AA6550"></path> <path d="M282.367 305.894L202.003 248.156L173.432 280.857L236.326 345.602C264.43 370.989 274.269 377.402 320.861 350.902L350.43 333.942L339.509 468.636H473.237C487.926 468.169 454.133 431.366 456.447 431.366L485.782 332.458L531.165 362.922L488.149 396.513L504.069 433.306L577.619 399.354C604.28 381.642 600.703 347.139 577.959 324.624C536.991 284.079 505.289 254.579 470.265 248.601C452.223 243.184 441.609 242.241 441.609 242.241C413.42 241.838 411.319 241.934 396.216 242.644C393.277 242.796 390.351 243.151 387.46 243.704C370.982 246.156 355.351 252.581 341.918 262.423L282.367 305.894Z" fill="#2585EE"></path> <path d="M280.435 332.892C280.687 332.598 280.894 332.27 281.051 331.917C281.553 330.997 281.993 330.044 282.367 329.065C282.932 327.615 283.383 326.123 283.715 324.603C284.11 322.739 284.351 320.846 284.436 318.942C284.492 317.036 284.386 315.128 284.118 313.239C283.882 311.698 283.528 310.178 283.057 308.692C282.769 307.69 282.415 306.71 281.995 305.756C281.862 305.38 281.68 305.024 281.454 304.696C281.348 304.696 282.006 306.233 282.696 308.756C283.083 310.238 283.377 311.742 283.577 313.261C283.809 315.12 283.898 316.995 283.842 318.868C283.761 320.74 283.541 322.604 283.184 324.444C282.874 325.941 282.47 327.417 281.974 328.864C281.104 331.397 280.34 332.839 280.435 332.892Z" fill="#263238"></path> <path d="M353.296 365.031C349.179 360.077 346.215 354.271 344.62 348.034C343.024 341.796 342.836 335.282 344.068 328.963C345.301 322.643 347.925 316.677 351.749 311.494C355.573 306.311 360.502 302.041 366.18 298.993" fill="#2585EE"></path> <path d="M366.223 301.081C366.018 301.168 365.825 301.282 365.65 301.42C365.299 301.664 364.737 302.003 364.089 302.48C362.202 303.88 360.428 305.425 358.783 307.102C353.414 312.707 349.074 319.212 345.962 326.32C344.134 330.226 343.178 334.483 343.16 338.796C343.183 342.291 343.742 345.762 344.816 349.088C345.516 351.327 346.367 353.515 347.363 355.639L348.223 357.346C348.314 357.55 348.424 357.745 348.552 357.929C348.5 357.712 348.421 357.502 348.318 357.303C348.127 356.848 347.872 356.243 347.565 355.554C346.653 353.409 345.859 351.215 345.187 348.982C344.189 345.678 343.678 342.247 343.669 338.796C343.729 334.571 344.692 330.408 346.493 326.585C349.593 319.536 353.847 313.052 359.08 307.399C360.692 305.713 362.416 304.138 364.238 302.682C364.875 302.152 365.406 301.791 365.735 301.505C365.911 301.381 366.075 301.239 366.223 301.081Z" fill="#263238"></path> <path d="M395.898 339.114C395.868 339.265 395.868 339.42 395.898 339.57C395.898 339.867 395.898 340.301 395.983 340.863C396.149 342.447 396.462 344.012 396.917 345.538C398.396 350.638 401.295 355.213 405.277 358.731C409.258 362.25 414.158 364.567 419.406 365.413C420.98 365.682 422.575 365.803 424.172 365.773C424.734 365.773 425.18 365.71 425.466 365.699C425.621 365.698 425.775 365.673 425.923 365.625C425.341 365.57 424.756 365.545 424.172 365.551C422.597 365.501 421.028 365.328 419.481 365.031C414.338 364.097 409.55 361.774 405.638 358.313C401.725 354.852 398.837 350.386 397.288 345.4C396.817 343.896 396.462 342.358 396.227 340.8C396.147 340.232 396.038 339.67 395.898 339.114Z" fill="#263238"></path> <path d="M448.381 389.125C448.304 389.315 448.254 389.515 448.232 389.719C448.147 390.174 448.052 390.779 447.924 391.446C447.748 392.358 447.621 393.278 447.542 394.202C447.447 395.262 447.277 396.513 447.256 397.881C447.256 398.559 447.203 399.28 447.181 400.001C447.16 400.721 447.181 401.516 447.181 402.322C447.181 403.933 447.362 405.64 447.51 407.442C447.959 411.339 448.729 415.193 449.813 418.964C450.956 422.718 452.411 426.371 454.165 429.882C455.014 431.472 455.799 433.009 456.68 434.355C457.105 435.034 457.487 435.712 457.911 436.327L459.143 438.086C459.907 439.221 460.713 440.206 461.382 441.012C462.051 441.818 462.677 442.56 463.197 443.132C463.717 443.704 464.088 444.075 464.407 444.415C464.537 444.574 464.686 444.717 464.852 444.839C464.746 444.663 464.625 444.496 464.492 444.34L463.367 442.994C462.868 442.422 462.305 441.712 461.626 440.874C460.947 440.037 460.193 439.062 459.503 437.906L458.315 436.147C457.901 435.532 457.529 434.853 457.115 434.175C456.256 432.818 455.492 431.292 454.664 429.712C451.182 422.733 448.948 415.2 448.062 407.452C447.903 405.661 447.701 403.965 447.691 402.375C447.691 401.58 447.606 400.806 447.616 400.064C447.627 399.322 447.616 398.612 447.616 397.944C447.616 396.587 447.754 395.368 447.818 394.287C447.882 393.206 447.999 392.284 448.105 391.531C448.211 390.779 448.253 390.249 448.306 389.793C448.351 389.573 448.376 389.349 448.381 389.125V389.125Z" fill="#263238"></path> <path d="M559.47 357.484C559.108 357.3 558.723 357.168 558.324 357.092C557.867 356.954 557.403 356.841 556.934 356.752C556.392 356.646 555.766 356.498 555.076 356.424C553.446 356.182 551.8 356.072 550.152 356.095C548.139 356.137 546.132 356.349 544.155 356.731C542.18 357.145 540.242 357.719 538.36 358.448C536.835 359.063 535.359 359.793 533.945 360.632C533.33 360.971 532.82 361.353 532.353 361.692C531.886 362.031 531.515 362.286 531.207 362.529C530.87 362.758 530.563 363.029 530.294 363.335C530.358 363.42 531.716 362.349 534.147 361.003C535.566 360.22 537.037 359.536 538.551 358.957C540.41 358.261 542.318 357.708 544.261 357.304C546.209 356.933 548.181 356.709 550.162 356.636C551.785 356.598 553.409 356.665 555.023 356.837C557.783 357.113 559.449 357.579 559.47 357.484Z" fill="#263238"></path> <path d="M468.397 301.208C468.396 300.997 468.367 300.787 468.312 300.583C468.217 300.117 468.111 299.523 467.962 298.802C467.553 296.636 467.259 294.449 467.081 292.251C466.821 288.993 466.92 285.715 467.378 282.478C467.944 278.52 469.228 274.698 471.167 271.2C473.091 267.696 475.801 264.685 479.085 262.402C481.791 260.578 484.856 259.353 488.074 258.808C490.246 258.453 492.462 258.453 494.633 258.808C496.183 259.063 497 259.36 497.021 259.296C496.83 259.205 496.631 259.13 496.427 259.073C495.855 258.875 495.27 258.716 494.676 258.596C492.48 258.161 490.225 258.107 488.011 258.437C484.714 258.931 481.568 260.147 478.798 261.999C475.425 264.298 472.646 267.364 470.69 270.945C468.721 274.5 467.429 278.389 466.88 282.415C466.439 285.69 466.378 289.005 466.699 292.294C466.908 294.505 467.263 296.701 467.76 298.866C467.93 299.629 468.079 300.212 468.196 300.615C468.243 300.819 468.311 301.018 468.397 301.208V301.208Z" fill="#263238"></path> <path d="M510.203 295.357C510.461 292.457 510.539 289.543 510.437 286.633C510.513 283.722 510.404 280.808 510.108 277.91C509.85 280.81 509.776 283.724 509.885 286.633C509.808 289.545 509.914 292.459 510.203 295.357V295.357Z" fill="#FAFAFA"></path> <path d="M530.379 320.766C531.893 319.416 533.285 317.937 534.54 316.345C535.929 314.866 537.179 313.262 538.276 311.554C536.76 312.906 535.368 314.388 534.115 315.985C532.725 317.46 531.474 319.06 530.379 320.766Z" fill="#FAFAFA"></path> <path d="M496.544 315.773C498.984 316.699 501.488 317.447 504.037 318.01C506.541 318.758 509.094 319.328 511.679 319.716C509.235 318.789 506.727 318.042 504.175 317.48C501.675 316.731 499.125 316.161 496.544 315.773Z" fill="#FAFAFA"></path> <path d="M482.449 304.717C482.695 304.034 482.845 303.321 482.895 302.597C483.076 301.262 483.256 299.417 483.341 297.297C483.411 295.531 483.39 293.762 483.277 291.997C483.285 291.264 483.193 290.532 483.001 289.824C482.842 289.824 482.938 293.153 482.789 297.244C482.64 301.336 482.29 304.696 482.449 304.717Z" fill="#FAFAFA"></path> <path d="M535.155 351.103C535.428 348.696 535.521 346.273 535.431 343.852C535.521 341.432 535.425 339.008 535.145 336.602C534.872 339.009 534.783 341.432 534.879 343.852C534.79 346.273 534.882 348.696 535.155 351.103V351.103Z" fill="#FAFAFA"></path> <path d="M558.505 343.365C561.559 342.453 564.557 341.363 567.483 340.1C570.476 339.008 573.403 337.745 576.25 336.316C573.195 337.231 570.197 338.325 567.271 339.591C564.281 340.685 561.354 341.944 558.505 343.365V343.365Z" fill="#FAFAFA"></path> <path d="M578.776 369.78C578.788 367.343 578.61 364.908 578.245 362.498C578.071 360.069 577.716 357.656 577.184 355.279C577.172 357.717 577.35 360.151 577.715 362.561C577.887 364.991 578.242 367.404 578.776 369.78V369.78Z" fill="#FAFAFA"></path> <path d="M545.641 391.51C546.589 391.38 547.524 391.163 548.432 390.863C550.141 390.418 552.487 389.803 555.108 389.199C557.73 388.595 560.107 388.139 561.837 387.747C562.781 387.61 563.711 387.393 564.618 387.1C563.659 387.083 562.702 387.172 561.763 387.365C560.022 387.62 557.613 388.044 554.981 388.658C552.349 389.273 550.003 389.941 548.326 390.492C547.4 390.742 546.5 391.083 545.641 391.51V391.51Z" fill="#FAFAFA"></path> <path d="M534.062 381.726C535.467 376.97 536.513 372.116 537.193 367.204C536.406 369.559 535.793 371.968 535.357 374.412C534.748 376.815 534.315 379.26 534.062 381.726V381.726Z" fill="#FAFAFA"></path> <path d="M522.366 413.24C523.195 413.284 524.027 413.22 524.839 413.049C528.771 412.471 532.623 411.447 536.323 409.997C537.108 409.739 537.857 409.383 538.551 408.937C537.742 409.09 536.95 409.321 536.185 409.626C534.741 410.092 532.746 410.685 530.507 411.311C528.267 411.936 526.261 412.371 524.744 412.657C523.934 412.772 523.137 412.967 522.366 413.24Z" fill="#FAFAFA"></path> <path d="M509.195 410.06C509.245 409.192 509.206 408.322 509.078 407.463C508.951 405.862 508.781 403.657 508.686 401.209C508.59 398.76 508.569 396.555 508.558 394.955C508.609 394.085 508.581 393.212 508.473 392.347C508.265 393.197 508.162 394.069 508.165 394.944C508.07 396.545 508.028 398.781 508.165 401.241C508.242 403.337 508.427 405.428 508.717 407.505C508.779 408.372 508.939 409.229 509.195 410.06Z" fill="#FAFAFA"></path> <path d="M458.453 335.923C458.58 336.019 460.724 333.273 463.589 330.104C466.455 326.934 468.96 324.507 468.843 324.38C468.193 324.783 467.594 325.263 467.06 325.811C465.999 326.765 464.63 328.132 463.186 329.733C461.743 331.333 460.522 332.86 459.684 333.973C459.189 334.566 458.775 335.222 458.453 335.923Z" fill="#FAFAFA"></path> <path d="M428.481 309.243C429.909 310.743 431.472 312.109 433.15 313.324C434.713 314.684 436.393 315.905 438.171 316.971C436.735 315.478 435.173 314.112 433.501 312.89C431.938 311.529 430.258 310.309 428.481 309.243Z" fill="#FAFAFA"></path> <path d="M445.175 294.404C445.408 291.024 445.454 287.634 445.313 284.249C445.358 280.862 445.216 277.476 444.889 274.104C444.663 277.485 444.621 280.875 444.761 284.259C444.717 287.646 444.855 291.032 445.175 294.404V294.404Z" fill="#FAFAFA"></path> <path d="M396.598 266.038C395.455 263.28 394.147 260.594 392.682 257.992C391.375 255.311 389.904 252.713 388.277 250.212C389.411 252.97 390.72 255.654 392.194 258.247C393.497 260.933 394.969 263.535 396.598 266.038V266.038Z" fill="#FAFAFA"></path> <path d="M400.122 297.626C402.307 295.078 404.351 292.414 406.246 289.644C408.287 286.978 410.183 284.204 411.924 281.333C409.733 283.876 407.688 286.541 405.8 289.315C403.762 291.984 401.867 294.758 400.122 297.626V297.626Z" fill="#FAFAFA"></path> <path d="M363.654 276.044C365.213 278.16 366.923 280.162 368.77 282.033C370.482 284.03 372.329 285.907 374.299 287.651C372.731 285.539 371.018 283.538 369.173 281.662C367.46 279.67 365.616 277.793 363.654 276.044V276.044Z" fill="#FAFAFA"></path> <path d="M375 326.966C377.027 324.536 378.909 321.987 380.636 319.334C382.512 316.789 384.241 314.138 385.815 311.395C383.793 313.827 381.911 316.371 380.179 319.016C378.299 321.563 376.569 324.217 375 326.966Z" fill="#FAFAFA"></path> <path d="M415.532 343.078C414.771 340.512 413.835 338.002 412.73 335.563C411.788 333.054 410.678 330.61 409.408 328.249C410.171 330.818 411.107 333.333 412.21 335.775C413.154 338.28 414.264 340.72 415.532 343.078V343.078Z" fill="#FAFAFA"></path> <path d="M442.66 365.54C442.734 365.667 447.425 363.346 453.135 360.346C458.845 357.346 463.42 354.791 463.345 354.664C463.271 354.537 458.591 356.848 452.881 359.858C447.171 362.869 442.596 365.402 442.66 365.54Z" fill="#FAFAFA"></path> <path d="M424.883 404.304C424.521 403.377 424.058 402.491 423.503 401.665C422.274 399.606 420.942 397.611 419.512 395.686C418.081 393.761 416.55 391.91 414.927 390.142C414.298 389.362 413.586 388.651 412.805 388.022C413.357 388.851 413.975 389.634 414.651 390.365C415.819 391.775 417.411 393.746 419.077 395.983C420.743 398.22 422.166 400.318 423.184 401.834C423.687 402.699 424.255 403.525 424.883 404.304V404.304Z" fill="#FAFAFA"></path> <path d="M459.472 397.17C459.799 395.259 459.945 393.321 459.907 391.383C460.06 389.447 460.02 387.501 459.79 385.574C459.469 387.489 459.323 389.43 459.355 391.372C459.214 393.304 459.253 395.245 459.472 397.17V397.17Z" fill="#FAFAFA"></path> <path d="M427.536 435.5C427.663 435.595 429.542 433.242 432.036 430.497C434.53 427.751 436.674 425.631 436.568 425.515C433.01 428.305 429.956 431.682 427.536 435.5V435.5Z" fill="#FAFAFA"></path> <path d="M444.931 450.34C446.969 452.164 449.133 453.842 451.405 455.364C453.568 457.036 455.837 458.566 458.198 459.943C456.16 458.12 453.997 456.441 451.724 454.919C449.565 453.243 447.295 451.713 444.931 450.34V450.34Z" fill="#FAFAFA"></path> <path d="M404.632 452.269C405.448 452.518 406.282 452.699 407.127 452.81C408.676 453.107 410.799 453.541 413.112 454.167C415.426 454.792 417.496 455.471 418.971 455.99C419.759 456.325 420.576 456.588 421.412 456.774C420.698 456.3 419.928 455.916 419.12 455.63C417.213 454.837 415.256 454.171 413.261 453.637C411.266 453.099 409.238 452.692 407.19 452.418C406.348 452.258 405.488 452.208 404.632 452.269V452.269Z" fill="#FAFAFA"></path> <path d="M387.662 448.739C387.81 448.739 388.723 443.736 389.678 437.504C390.633 431.271 391.292 426.204 391.143 426.183C390.994 426.161 390.082 431.186 389.126 437.419C388.171 443.651 387.513 448.718 387.662 448.739Z" fill="#FAFAFA"></path> <path d="M383.66 407.771C384.651 407.65 385.625 407.426 386.569 407.103C388.341 406.605 390.814 405.831 393.404 404.866C395.993 403.902 398.402 402.916 400.079 402.153C401.006 401.783 401.894 401.325 402.733 400.785C401.768 401.039 400.827 401.376 399.92 401.792C398.211 402.46 395.845 403.382 393.212 404.347C390.58 405.311 388.192 406.138 386.452 406.732C385.494 406.999 384.56 407.347 383.66 407.771Z" fill="#FAFAFA"></path> <path d="M354.081 428.896C355.397 431.423 356.875 433.863 358.507 436.199C359.987 438.637 361.621 440.977 363.4 443.206C362.086 440.678 360.607 438.238 358.974 435.903C357.494 433.465 355.86 431.125 354.081 428.896V428.896Z" fill="#FAFAFA"></path> <path d="M359.452 465.774C361.651 464.438 363.754 462.95 365.745 461.322C367.849 459.835 369.842 458.198 371.71 456.424C369.511 457.76 367.408 459.248 365.416 460.876C363.312 462.363 361.319 464 359.452 465.774V465.774Z" fill="#FAFAFA"></path> <path d="M365.299 384.927C365.823 387.842 366.532 390.72 367.422 393.545C368.132 396.424 369.022 399.257 370.086 402.025C369.558 399.111 368.85 396.233 367.963 393.407C367.254 390.528 366.365 387.695 365.299 384.927Z" fill="#FAFAFA"></path> <path d="M373.939 368.826C378.116 367.078 381.858 364.436 384.902 361.088C384.785 360.971 382.557 362.985 379.521 365.105C376.486 367.225 373.939 368.72 373.939 368.826Z" fill="#FAFAFA"></path> <path d="M361.075 343.057C361.863 344.752 362.812 346.367 363.909 347.88C364.86 349.489 365.965 351.001 367.21 352.396C366.422 350.701 365.473 349.086 364.376 347.573C363.425 345.964 362.32 344.452 361.075 343.057V343.057Z" fill="#FAFAFA"></path> <path d="M339.435 294.732C338.907 291.926 338.198 289.157 337.312 286.443C336.59 283.676 335.696 280.958 334.637 278.302C335.168 281.107 335.877 283.876 336.76 286.591C337.476 289.359 338.369 292.078 339.435 294.732V294.732Z" fill="#FAFAFA"></path> <path d="M322.995 329.129C323.872 328.671 324.697 328.12 325.457 327.486C327.347 326.038 329.148 324.477 330.848 322.811C332.545 321.148 334.133 319.378 335.603 317.511C336.258 316.769 336.821 315.95 337.28 315.073C336.571 315.753 335.911 316.483 335.306 317.257C334.107 318.635 332.43 320.49 330.456 322.44C328.482 324.391 326.593 326.034 325.213 327.2C324.423 327.782 323.681 328.428 322.995 329.129Z" fill="#FAFAFA"></path> <path d="M309.792 314.66C309.93 314.575 308.423 312.084 307.011 308.798C305.599 305.512 304.793 302.703 304.634 302.746C305.379 307.071 307.147 311.155 309.792 314.66V314.66Z" fill="#FAFAFA"></path> <path d="M299.476 342.082C299.303 340.1 298.948 338.138 298.414 336.22C298.067 334.266 297.545 332.347 296.854 330.486C297.021 332.469 297.376 334.432 297.915 336.348C298.256 338.303 298.779 340.223 299.476 342.082V342.082Z" fill="#FAFAFA"></path> <path d="M274.959 358.194C277.045 356.899 279.032 355.45 280.902 353.859C282.888 352.413 284.761 350.818 286.506 349.089C284.42 350.384 282.433 351.833 280.563 353.424C278.574 354.867 276.7 356.462 274.959 358.194V358.194Z" fill="#FAFAFA"></path> <path d="M257.903 324.338C258.204 325.164 258.585 325.959 259.039 326.712C259.782 328.154 260.769 330.157 261.735 332.436C262.7 334.715 263.464 336.803 263.995 338.341C264.233 339.186 264.546 340.009 264.929 340.8C264.847 339.922 264.662 339.058 264.377 338.224C263.795 336.178 263.086 334.171 262.255 332.214C261.423 330.257 260.466 328.355 259.389 326.521C258.979 325.739 258.481 325.006 257.903 324.338V324.338Z" fill="#FAFAFA"></path> <path d="M244.679 307.113C248.088 306.362 251.454 305.428 254.762 304.314C258.123 303.378 261.432 302.264 264.674 300.975C261.268 301.74 257.903 302.678 254.592 303.784C251.233 304.725 247.925 305.836 244.679 307.113Z" fill="#FAFAFA"></path> <path d="M230.542 322.642C231.089 323.42 231.685 324.164 232.325 324.868C235.232 328.413 237.646 332.335 239.5 336.528C239.836 337.418 240.237 338.282 240.699 339.114C240.536 338.167 240.255 337.245 239.86 336.369C238.184 332.049 235.731 328.073 232.622 324.634C232.019 323.882 231.32 323.212 230.542 322.642V322.642Z" fill="#FAFAFA"></path> <path d="M223.665 298.908C223.737 297.885 223.737 296.858 223.665 295.834C223.611 293.937 223.58 291.319 223.665 288.414C223.749 285.51 223.962 282.913 224.131 280.994C224.274 279.976 224.345 278.949 224.344 277.92C224.034 278.903 223.831 279.916 223.739 280.941C223.402 283.402 223.193 285.879 223.113 288.361C223.029 290.836 223.079 293.313 223.261 295.781C223.281 296.835 223.417 297.884 223.665 298.908V298.908Z" fill="#FAFAFA"></path> <path d="M197.757 298.505C199.87 297.13 201.874 295.595 203.754 293.916C205.767 292.386 207.665 290.71 209.432 288.902C207.323 290.287 205.316 291.821 203.425 293.492C201.413 295.019 199.519 296.695 197.757 298.505V298.505Z" fill="#FAFAFA"></path> <path d="M187.494 280.856C187.936 279.913 188.309 278.939 188.609 277.941C189.256 276.129 190.179 273.648 191.304 270.935C192.429 268.221 193.533 265.815 194.361 264.077C194.856 263.16 195.278 262.207 195.624 261.225C194.996 262.062 194.455 262.96 194.011 263.907C193.098 265.603 191.888 267.998 190.827 270.723C189.765 273.447 188.832 275.97 188.269 277.825C187.904 278.805 187.644 279.821 187.494 280.856V280.856Z" fill="#FAFAFA"></path> <g opacity="0.3"> <path opacity="0.3" d="M398.636 348.94C402.881 360.102 414.429 365.127 425.169 365.837H425.785C430.676 365.607 435.57 366.224 440.251 367.66C437.363 372.486 432.8 376.084 427.431 377.772C422.061 379.46 416.257 379.119 411.123 376.814C405.988 374.51 401.879 370.402 399.578 365.271C397.276 360.14 396.941 354.344 398.636 348.983V348.94Z" fill="black"></path> </g> <g opacity="0.3"> <path opacity="0.3" d="M473.354 374.582C470.764 384.228 467.103 395.57 464.513 405.216C462.242 413.696 458.771 422.971 456.5 431.419L455.502 431.323C451.129 411.671 458.559 388.245 473.354 374.582Z" fill="black"></path> </g> <g opacity="0.3"> <path opacity="0.3" d="M333.608 330.899C338.006 321.864 345.729 314.876 355.164 311.395C349.857 319.027 343.86 328.238 343.256 338.128L335.349 342.665C332.886 340.291 332.122 333.962 333.608 330.899Z" fill="black"></path> </g> <path d="M446.927 256.413C447.988 256.731 449.005 257.184 449.951 257.759C450.798 258.472 451.544 259.295 452.17 260.208C452.233 260.208 452.17 259.784 451.904 259.201C451.519 258.447 450.958 257.796 450.27 257.303C449.587 256.809 448.799 256.483 447.967 256.349C447.319 256.264 446.927 256.36 446.927 256.413Z" fill="#263238"></path> <path d="M434 272.981C434.063 272.981 434.244 272.536 434.307 271.741C434.363 270.694 434.186 269.647 433.787 268.677C433.4 267.702 432.793 266.828 432.015 266.123C431.421 265.593 430.954 265.391 430.954 265.444C431.913 266.46 432.708 267.619 433.31 268.879C433.744 270.204 433.976 271.587 434 272.981V272.981Z" fill="#263238"></path> <path d="M447.797 272.26C447.866 271.571 447.794 270.874 447.585 270.214C446.777 266.934 444.726 264.095 441.864 262.296C441.305 261.89 440.67 261.602 439.996 261.448C441.982 262.604 443.702 264.164 445.046 266.027C446.39 267.889 447.327 270.013 447.797 272.26Z" fill="#263238"></path> <path d="M456.924 252.597C456.977 252.597 456.786 252.131 456.256 251.537C455.541 250.847 454.662 250.351 453.702 250.097C452.741 249.843 451.731 249.839 450.769 250.085C450.036 250.297 449.707 250.573 449.707 250.636C450.985 250.375 452.303 250.375 453.581 250.636C454.814 251.063 455.95 251.73 456.924 252.597V252.597Z" fill="#263238"></path> <path d="M419.236 272.058C419.542 271.185 419.759 270.283 419.884 269.366C420.184 268.494 420.404 267.596 420.542 266.684C419.899 267.398 419.485 268.288 419.353 269.239C419.048 270.149 419.007 271.126 419.236 272.058V272.058Z" fill="#263238"></path> <path d="M403.996 272.26C404.72 268.91 406.38 265.834 408.782 263.388C407.256 264.291 406.034 265.626 405.269 267.225C404.343 268.735 403.899 270.491 403.996 272.26V272.26Z" fill="#263238"></path> <path d="M397.575 260.409C397.723 260.473 398.126 259.625 399.071 259.084C400.016 258.544 400.928 258.565 400.95 258.406C400.971 258.247 400.737 258.226 400.323 258.204C399.785 258.192 399.254 258.336 398.795 258.618C398.336 258.886 397.967 259.285 397.734 259.763C397.522 260.123 397.511 260.388 397.575 260.409Z" fill="#263238"></path> <path d="M385.38 255.3C385.93 254.947 386.462 254.565 386.972 254.155C388.258 253.305 389.701 252.721 391.217 252.438C392.748 252.166 394.317 252.202 395.834 252.544C396.991 252.82 397.67 253.148 397.713 253.064C397.197 252.63 396.586 252.324 395.929 252.173C394.372 251.696 392.724 251.598 391.121 251.887C389.518 252.177 388.008 252.845 386.717 253.837C386.171 254.223 385.715 254.722 385.38 255.3V255.3Z" fill="#263238"></path> <path d="M388.723 245.834C389.751 245.672 390.792 245.597 391.833 245.611C392.856 245.799 393.864 246.065 394.847 246.406C394.039 245.638 392.995 245.164 391.884 245.06C390.773 244.956 389.66 245.229 388.723 245.834Z" fill="#263238"></path> <path d="M445.281 231.906C456.563 232.16 472.738 230.846 479.467 221.783C486.196 212.72 483.277 196.237 479.764 185.531C489.762 174.38 489.316 155.427 478.703 144.784C476.803 142.855 474.596 141.149 473.205 138.827C470.584 134.46 471.358 128.959 470.722 123.892C470.203 119.767 468.702 115.827 466.346 112.4C463.989 108.973 460.846 106.16 457.178 104.196C453.51 102.231 449.424 101.172 445.262 101.108C441.1 101.044 436.984 101.976 433.257 103.826C426.973 98.3457 420.436 92.8125 412.561 90.0459C404.685 87.2793 395.059 88.0001 389.137 93.8619C385.889 97.0419 383.83 101.685 379.776 103.762C375.722 105.84 370.638 104.748 366.138 105.808C357.552 107.833 352.808 117.023 350.558 125.545C348.307 134.068 347.193 143.396 341.419 150.063C338.416 153.54 334.308 156.052 331.867 159.932C330.499 162.09 329.715 164.566 329.594 167.118C329.472 169.67 330.016 172.21 331.173 174.488C332.33 176.767 334.059 178.706 336.192 180.116C338.325 181.526 340.788 182.358 343.34 182.531C338.108 189.135 336.972 198.431 339.286 206.529C341.6 214.628 346.44 224.878 354.835 227.528C360.404 229.201 366.395 228.77 371.667 226.32C371.667 226.32 376.029 234.609 396.078 233.803C427.366 232.531 440.505 243.587 445.271 231.863" fill="#263238"></path> <path d="M373.047 194.519C371.582 181.449 373.228 160.218 375.17 142.876C376.879 127.273 388.139 108.553 403.677 110.928L451.862 125.481C454.138 125.827 456.201 127.013 457.644 128.805C459.086 130.597 459.803 132.865 459.652 135.159L449.484 250.19C449.366 251.589 448.863 252.928 448.03 254.059C444.845 258.527 440.477 262.02 435.415 264.147C430.354 266.274 424.799 266.951 419.374 266.101C400.44 263.652 396.195 251.526 395.325 247.657C395.176 247.011 395.112 246.348 395.133 245.685C395.611 230.771 395.887 224.931 395.876 225.037C395.866 225.143 375.987 220.797 373.047 194.519Z" fill="#F4BCA7"></path> <path d="M383.331 160.017C383.284 160.889 383.579 161.746 384.154 162.405C384.728 163.064 385.537 163.473 386.409 163.546C386.834 163.602 387.266 163.572 387.68 163.457C388.093 163.342 388.478 163.146 388.813 162.878C389.148 162.611 389.426 162.279 389.629 161.902C389.832 161.525 389.957 161.111 389.997 160.684C390.047 159.814 389.754 158.958 389.181 158.301C388.607 157.643 387.799 157.236 386.929 157.165C386.504 157.108 386.072 157.136 385.658 157.25C385.245 157.363 384.858 157.559 384.522 157.825C384.186 158.092 383.907 158.423 383.703 158.799C383.498 159.176 383.372 159.59 383.331 160.017Z" fill="#263238"></path> <path d="M378.683 156.232C379.075 156.688 381.708 154.928 385.306 155.109C388.903 155.289 391.472 157.229 391.886 156.783C392.087 156.593 391.695 155.787 390.58 154.897C389.073 153.745 387.244 153.09 385.348 153.02C383.47 152.922 381.611 153.427 380.041 154.462C378.906 155.257 378.492 156.031 378.683 156.232Z" fill="#263238"></path> <path d="M417.644 161.596C417.594 162.467 417.887 163.324 418.46 163.983C419.033 164.643 419.841 165.052 420.712 165.126C421.138 165.183 421.571 165.154 421.985 165.04C422.399 164.926 422.786 164.729 423.122 164.462C423.459 164.194 423.737 163.862 423.941 163.484C424.145 163.106 424.27 162.691 424.31 162.264C424.357 161.393 424.063 160.538 423.491 159.879C422.919 159.22 422.112 158.81 421.242 158.734C420.816 158.676 420.383 158.705 419.969 158.819C419.555 158.934 419.168 159.13 418.832 159.398C418.495 159.665 418.217 159.998 418.013 160.375C417.809 160.753 417.683 161.168 417.644 161.596V161.596Z" fill="#263238"></path> <path d="M414.375 157.42C414.768 157.875 417.4 156.126 420.998 156.296C424.596 156.466 427.165 158.416 427.568 157.971C427.769 157.791 427.387 156.974 426.273 156.084C424.763 154.938 422.936 154.283 421.041 154.208C419.163 154.11 417.303 154.615 415.734 155.649C414.598 156.444 414.184 157.218 414.375 157.42Z" fill="#263238"></path> <path d="M400.313 182.552C400.313 182.351 398.116 181.863 394.507 181.227C393.595 181.089 392.735 180.867 392.608 180.231C392.572 179.28 392.828 178.341 393.34 177.538C394.316 175.355 395.325 173.065 396.386 170.669C400.631 160.875 403.741 152.808 403.348 152.649C402.956 152.49 399.188 160.281 394.953 170.076C393.892 172.493 392.947 174.793 392.024 176.998C391.391 178.078 391.162 179.347 391.376 180.58C391.494 180.911 391.686 181.211 391.938 181.455C392.19 181.7 392.496 181.883 392.83 181.99C393.332 182.154 393.853 182.254 394.38 182.287C398.02 182.637 400.292 182.753 400.313 182.552Z" fill="#263238"></path> <path d="M395.855 225.037C408.14 225.788 420.393 223.121 431.251 217.331C431.251 217.331 421.582 235.351 395.547 231.694L395.855 225.037Z" fill="#EB996E"></path> <path d="M401.438 191.297C402.167 190.472 403.094 189.845 404.131 189.475C405.169 189.104 406.283 189.002 407.371 189.177C408.162 189.286 408.924 189.554 409.609 189.964C410.295 190.373 410.891 190.917 411.361 191.562C411.816 192.184 412.068 192.931 412.083 193.701C412.098 194.47 411.876 195.226 411.446 195.866C410.385 197.191 408.368 197.413 406.67 196.841C404.996 196.161 403.474 195.155 402.191 193.884C401.805 193.591 401.475 193.232 401.215 192.824C401.091 192.62 401.031 192.384 401.043 192.146C401.054 191.908 401.136 191.679 401.279 191.488" fill="#AA6550"></path> <path d="M410.809 185.531C410.226 185.467 410.035 189.378 406.564 191.997C403.093 194.615 398.944 194 398.891 194.541C398.827 194.784 399.782 195.346 401.544 195.473C403.825 195.604 406.079 194.928 407.912 193.565C409.678 192.253 410.866 190.308 411.223 188.138C411.467 186.516 411.085 185.52 410.809 185.531Z" fill="#263238"></path> <path d="M413.293 150.084C413.611 151.081 417.231 150.784 421.433 151.483C425.636 152.183 429.001 153.497 429.606 152.649C429.882 152.236 429.319 151.293 427.992 150.275C426.205 149.029 424.157 148.206 422.004 147.868C419.85 147.53 417.648 147.686 415.564 148.325C413.983 148.876 413.208 149.618 413.293 150.084Z" fill="#263238"></path> <path d="M379.447 149.862C380.041 150.71 382.567 149.978 385.55 150.074C388.532 150.169 391.037 150.879 391.663 150.074C391.939 149.671 391.578 148.833 390.506 147.954C389.066 146.957 387.361 146.41 385.609 146.384C383.857 146.357 382.137 146.852 380.668 147.805C379.574 148.621 379.182 149.448 379.447 149.862Z" fill="#263238"></path> <path d="M438.107 110.483C438.001 113.104 437.319 115.669 436.109 117.997C434.898 120.325 433.189 122.358 431.103 123.952C429.017 125.546 426.605 126.661 424.039 127.218C421.472 127.776 418.814 127.762 416.254 127.178C412.295 126.277 408.007 124.072 404.463 126.043C400.727 128.163 400.345 133.58 397.033 136.23C392.257 140.025 385.104 135.954 379.182 137.428C374.607 138.573 371.593 142.728 368.441 146.247C365.289 149.766 360.64 152.989 356.183 151.452C356.496 147.394 357.275 143.385 358.507 139.505C359.747 135.578 362.318 132.205 365.777 129.965C367.698 128.831 369.895 128.185 371.689 126.86C375.573 124.008 376.677 118.782 379.118 114.67C380.758 112.022 383.007 109.803 385.678 108.197C388.349 106.592 391.365 105.645 394.476 105.437C399.634 105.14 404.866 106.91 409.929 105.872C413.664 105.098 417.008 102.84 420.786 102.289C428.152 101.229 434.711 106.762 439.784 112.21" fill="#263238"></path> <path d="M452.923 168.38C453.337 168.2 469.469 163.494 468.939 179.934C468.408 196.375 451.957 192.463 451.957 191.986C451.957 191.509 452.923 168.38 452.923 168.38Z" fill="#F4BCA7"></path> <path d="M457.211 185.944C457.285 185.944 457.487 186.146 457.964 186.389C458.633 186.692 459.392 186.73 460.087 186.495C461.849 185.912 463.398 183.209 463.579 180.241C463.662 178.835 463.433 177.427 462.91 176.118C462.769 175.596 462.501 175.116 462.131 174.72C461.761 174.325 461.3 174.026 460.788 173.85C460.461 173.75 460.109 173.769 459.795 173.903C459.48 174.037 459.223 174.277 459.068 174.581C458.835 175.037 458.93 175.365 458.835 175.387C458.739 175.408 458.495 175.1 458.654 174.433C458.744 174.008 458.986 173.632 459.334 173.373C459.562 173.211 459.82 173.095 460.093 173.033C460.367 172.972 460.65 172.964 460.926 173.012C461.598 173.164 462.22 173.487 462.731 173.95C463.243 174.412 463.626 174.998 463.844 175.652C464.499 177.1 464.791 178.687 464.693 180.273C464.481 183.58 462.687 186.633 460.278 187.237C459.832 187.351 459.365 187.364 458.914 187.274C458.462 187.184 458.036 186.994 457.667 186.718C457.232 186.336 457.158 185.965 457.211 185.944Z" fill="#EB996E"></path> <path d="M459.493 167.246C456.75 167.849 453.903 167.804 451.181 167.115C448.458 166.425 445.934 165.111 443.81 163.275C441.685 161.44 440.02 159.134 438.945 156.543C437.87 153.951 437.416 151.144 437.619 148.346C431.548 148.049 426.305 143.364 423.896 137.746C421.486 132.128 421.476 125.842 422.219 119.8C422.287 118.375 422.714 116.989 423.46 115.772C425.265 113.271 428.937 113.292 432.015 113.557C439.943 114.246 448.115 115.02 455.109 118.857C462.104 122.694 467.633 130.315 466.381 138.159C465.765 141.997 463.632 145.77 464.587 149.533C465.298 152.332 467.654 154.6 467.93 157.473C467.974 158.585 467.778 159.693 467.355 160.723C466.932 161.753 466.292 162.68 465.479 163.44C463.849 164.958 462.004 166.226 460.002 167.203" fill="#263238"></path> <path d="M456.553 193.428C453.369 193.937 450.058 194.88 448.243 197.551C447.34 198.89 446.718 200.396 446.413 201.981C446.108 203.566 446.128 205.196 446.47 206.773C443.912 206.646 441.822 208.893 440.845 211.246C438.362 217.31 441.164 224.677 446.332 228.715C448.147 230.125 450.387 231.238 452.7 230.931C455.014 230.623 456.574 229.182 458.155 227.751C460.809 225.498 463.148 222.899 465.107 220.023C467.14 217.267 468.146 213.89 467.952 210.472C467.758 207.055 466.377 203.813 464.046 201.304C461.923 198.781 459.334 195.304 456.617 193.438" fill="#263238"></path> <path d="M478.268 142.399C477.454 142.662 476.584 142.695 475.752 142.495C474.791 142.228 473.895 141.766 473.12 141.138C472.093 140.286 471.164 139.322 470.35 138.265C469.345 136.953 468.071 135.869 466.614 135.085C464.927 134.269 462.91 134.439 460.979 134.619C459.991 134.73 458.994 134.73 458.007 134.619C456.995 134.468 456.026 134.107 455.163 133.559C453.329 132.359 451.861 130.68 450.917 128.704C449.996 126.703 449.213 124.642 448.572 122.535C447.927 120.56 447.095 118.65 446.088 116.832C444.393 113.685 441.81 111.105 438.659 109.412C436.529 108.305 434.135 107.802 431.739 107.96C430.866 107.999 430.007 108.192 429.202 108.532C430.042 108.352 430.893 108.231 431.749 108.172C434.094 108.098 436.416 108.647 438.478 109.762C441.508 111.465 443.978 114.009 445.589 117.087C446.571 118.885 447.378 120.773 447.999 122.726C448.644 124.86 449.438 126.946 450.376 128.969C451.348 131.029 452.873 132.779 454.78 134.025C455.716 134.585 456.756 134.946 457.837 135.085C458.864 135.192 459.899 135.192 460.926 135.085C462.878 134.884 464.778 134.725 466.328 135.456C467.738 136.213 468.975 137.257 469.958 138.52C470.81 139.572 471.774 140.528 472.834 141.371C473.658 142.002 474.605 142.453 475.614 142.696C476.252 142.853 476.919 142.853 477.557 142.696C477.809 142.639 478.05 142.539 478.268 142.399V142.399Z" fill="#455A64"></path> <path d="M486.758 162.02C486.771 161.939 486.771 161.857 486.758 161.776C486.796 161.541 486.796 161.301 486.758 161.066C486.643 160.155 486.385 159.268 485.994 158.437C485.407 157.108 484.677 155.847 483.818 154.674C483.292 153.929 482.713 153.22 482.089 152.554C481.393 151.797 480.588 151.146 479.701 150.625C478.625 150.11 477.45 149.838 476.257 149.829C475.065 149.82 473.885 150.074 472.802 150.572C471.591 151.074 470.455 151.741 469.427 152.554C468.353 153.377 467.197 154.088 465.977 154.674C463.378 155.958 460.464 156.469 457.582 156.148C454.488 155.781 451.663 154.212 449.718 151.78C447.797 149.289 447.34 145.855 444.899 143.661C444.284 143.136 443.559 142.755 442.777 142.548C442.035 142.358 441.271 142.265 440.505 142.272C439.09 142.338 437.671 142.303 436.26 142.166C433.657 141.799 431.183 140.802 429.054 139.262C427.189 137.93 425.651 136.194 424.554 134.184C422.97 131.243 422.332 127.886 422.728 124.57C422.838 123.675 423.015 122.789 423.259 121.92C423.374 121.621 423.463 121.313 423.524 120.998C422.983 122.118 422.625 123.316 422.463 124.549C422.15 126.638 422.257 128.767 422.778 130.814C423.298 132.861 424.222 134.783 425.494 136.47C426.767 138.156 428.363 139.573 430.189 140.636C432.016 141.7 434.036 142.389 436.133 142.664C437.571 142.817 439.018 142.863 440.463 142.802C441.178 142.797 441.892 142.883 442.586 143.057C443.28 143.265 443.919 143.627 444.454 144.117C446.704 146.088 447.181 149.491 449.187 152.151C451.222 154.701 454.181 156.347 457.423 156.731C460.41 157.057 463.428 156.516 466.115 155.172C467.364 154.571 468.545 153.839 469.639 152.989C470.631 152.197 471.728 151.544 472.897 151.049C473.919 150.572 475.033 150.325 476.161 150.325C477.289 150.325 478.403 150.572 479.425 151.049C480.286 151.542 481.069 152.16 481.749 152.883C482.372 153.52 482.953 154.196 483.489 154.907C484.35 156.053 485.093 157.282 485.708 158.575C486.118 159.38 486.407 160.241 486.567 161.13C486.594 161.362 486.594 161.597 486.567 161.829C486.621 161.902 486.685 161.967 486.758 162.02Z" fill="#455A64"></path> <path d="M350.006 127.114C350.475 126.038 351.153 125.065 352.001 124.252C353.625 122.683 356.756 121.263 360.799 120.913C362.826 120.722 365.045 120.722 367.475 120.5C370.078 120.354 372.607 119.587 374.851 118.263C377.194 116.616 379.221 114.562 380.837 112.2C382.534 109.71 384.483 107.401 386.653 105.31C388.938 103.367 391.707 102.078 394.666 101.579C397.436 101.113 400.255 101.013 403.051 101.282C405.726 101.494 408.252 101.907 410.629 102.342C413.006 102.776 415.225 103.063 417.262 103.243C420.489 103.633 423.759 103.471 426.931 102.766C428.091 102.502 429.214 102.096 430.274 101.557C429.977 101.63 429.686 101.726 429.404 101.844C429.057 101.977 428.703 102.091 428.343 102.183C427.861 102.332 427.372 102.455 426.878 102.554C423.731 103.163 420.506 103.266 417.326 102.861C415.299 102.649 413.081 102.299 410.724 101.897C408.368 101.494 405.821 101.049 403.115 100.837C400.285 100.553 397.43 100.646 394.624 101.112C391.568 101.627 388.708 102.957 386.346 104.96C384.141 107.075 382.167 109.416 380.455 111.945C378.879 114.258 376.906 116.274 374.628 117.903C372.455 119.198 370.002 119.955 367.475 120.107C365.098 120.341 362.858 120.372 360.81 120.584C356.713 120.987 353.529 122.503 351.905 124.167C351.272 124.778 350.751 125.496 350.366 126.287C350.273 126.498 350.192 126.714 350.122 126.934C350.03 127.054 349.991 127.114 350.006 127.114Z" fill="#455A64"></path> <path d="M337.853 153.646C337.853 153.646 337.938 153.646 338.119 153.752C338.379 153.851 338.645 153.935 338.915 154.007C339.953 154.277 341.029 154.374 342.099 154.293C342.881 154.223 343.651 154.055 344.391 153.795C345.263 153.473 346.09 153.042 346.853 152.512C348.681 151.166 350.225 149.473 351.396 147.53C352.733 145.41 353.519 142.739 354.856 140.174C355.515 138.845 356.436 137.663 357.562 136.697C358.808 135.733 360.262 135.073 361.808 134.768C364.992 134.047 368.462 134.344 372.049 133.824C374.849 133.385 377.519 132.341 379.873 130.765C382.227 129.189 384.208 127.118 385.677 124.698C386.586 123.136 387.575 121.622 388.638 120.161C389.679 118.782 391.052 117.688 392.629 116.981C394.154 116.338 395.775 115.951 397.426 115.836C400.527 115.757 403.63 115.891 406.713 116.239C413.45 116.756 420.141 114.767 425.498 110.653C426.665 109.794 427.733 108.81 428.682 107.716C428.602 107.769 428.527 107.829 428.459 107.897L427.854 108.458C424.181 111.845 419.672 114.194 414.789 115.264C412.155 115.827 409.451 116.002 406.766 115.783C403.664 115.409 400.539 115.257 397.415 115.327C395.702 115.441 394.02 115.838 392.438 116.504C390.763 117.22 389.301 118.356 388.192 119.8C387.117 121.278 386.118 122.81 385.199 124.39C384.231 125.965 383.041 127.393 381.665 128.63C378.94 131.079 375.564 132.688 371.943 133.262C368.452 133.792 364.949 133.506 361.67 134.248C360.058 134.582 358.547 135.286 357.254 136.305C356.083 137.314 355.13 138.551 354.453 139.94C353.105 142.569 352.33 145.24 351.056 147.307C349.934 149.222 348.444 150.897 346.673 152.236C345.949 152.767 345.161 153.205 344.327 153.54C343.613 153.808 342.868 153.982 342.109 154.06C340.677 154.177 339.236 154.037 337.853 153.646V153.646Z" fill="#455A64"></path> <path d="M345.612 219.069C344.8 218.294 344.087 217.422 343.489 216.472C342.019 213.792 341.317 210.758 341.462 207.706C341.49 205.608 341.885 203.531 342.629 201.568C343.046 200.488 343.607 199.468 344.296 198.537C345.043 197.549 345.878 196.63 346.79 195.791C348.637 194.032 350.844 192.463 352.914 190.491C355.172 188.585 356.848 186.084 357.753 183.273C358.093 181.814 358.165 180.305 357.966 178.821C357.796 177.358 357.477 175.969 357.191 174.581C356.887 173.256 356.688 171.909 356.596 170.553C356.522 169.27 356.695 167.986 357.106 166.769C357.98 164.534 359.417 162.562 361.277 161.045C362.892 159.68 364.578 158.403 366.329 157.218C368.936 155.567 371.178 153.403 372.92 150.858C373.36 150.134 373.716 149.362 373.981 148.558C374.067 148.278 374.128 147.99 374.162 147.699C373.833 148.768 373.37 149.79 372.782 150.741C370.997 153.224 368.744 155.334 366.148 156.953C364.368 158.119 362.657 159.386 361.022 160.748C359.086 162.307 357.586 164.342 356.671 166.652C356.232 167.933 356.042 169.286 356.108 170.638C356.202 172.018 356.401 173.389 356.703 174.74C357.265 177.464 357.987 180.347 357.255 183.167C356.383 185.88 354.765 188.293 352.585 190.131C350.558 192.018 348.339 193.608 346.482 195.431C345.553 196.293 344.704 197.236 343.945 198.251C343.24 199.23 342.669 200.3 342.247 201.431C341.499 203.442 341.114 205.571 341.112 207.716C340.994 210.829 341.767 213.91 343.34 216.599C343.595 217.016 343.886 217.41 344.211 217.776C344.428 218.055 344.673 218.31 344.943 218.539C345.147 218.738 345.371 218.916 345.612 219.069V219.069Z" fill="#455A64"></path> <path d="M478.618 185.827C479.24 185.2 479.733 184.459 480.072 183.644C481.038 181.435 481.268 178.976 480.73 176.627C480.314 174.894 479.557 173.262 478.502 171.826C477.446 170.39 476.115 169.179 474.585 168.263C472.81 167.136 470.848 166.335 468.79 165.899C466.595 165.465 464.363 165.242 462.125 165.232C457.582 165.136 453.178 165.232 449.495 163.875C446.229 162.682 443.386 160.555 441.323 157.759C439.909 155.889 438.868 153.766 438.255 151.505C437.842 149.893 437.789 148.961 437.725 148.971C437.697 149.193 437.697 149.417 437.725 149.639C437.774 150.285 437.87 150.926 438.011 151.558C438.706 154.447 440.098 157.122 442.064 159.352C444.03 161.582 446.512 163.298 449.293 164.352C453.093 165.783 457.572 165.687 462.093 165.783C464.295 165.794 466.491 166.01 468.652 166.429C470.649 166.845 472.557 167.61 474.288 168.687C477.285 170.458 479.457 173.344 480.327 176.711C480.879 178.988 480.716 181.379 479.86 183.559C479.502 184.345 479.087 185.103 478.618 185.827V185.827Z" fill="#455A64"></path> <path d="M489.348 399.396C489.157 399.746 484.89 403.053 484.89 403.053L477.068 400.234L467.304 405.216C467.304 405.216 458.538 406.138 458.463 409.297C458.389 412.456 453.252 427.974 459.917 438.595C466.582 449.216 471.305 452.736 471.305 452.736L494.994 430.635L502.275 429.14L489.348 399.396Z" fill="#F4BCA7"></path> <path d="M155.951 469.092C155.951 469.24 255.462 469.367 378.173 469.367C500.885 469.367 600.417 469.24 600.417 469.092C600.417 468.943 500.938 468.816 378.173 468.816C255.409 468.816 155.951 468.933 155.951 469.092Z" fill="#263238"></path> <path d="M254.613 44.6992C264.458 44.6959 274.092 47.5537 282.339 52.9242C290.586 58.2947 297.09 65.9457 301.058 74.9444C305.026 83.943 306.287 93.9005 304.687 103.603C303.087 113.305 298.695 122.332 292.046 129.584C291.844 129.807 291.622 130.019 291.409 130.241L301.036 154.886L270.257 144.064L270.183 143.618C265.279 145.187 260.121 147.201 254.698 147.201C226.679 147.201 203.902 123.362 203.902 95.3672C203.902 81.9329 209.244 69.0485 218.754 59.547C228.263 50.0455 241.162 44.7048 254.613 44.6992V44.6992Z" fill="#EBF5FF"></path> <path d="M254.666 45.4202C254.363 45.3898 254.057 45.3898 253.753 45.4202L251.089 45.4944C249.644 45.5182 248.203 45.6601 246.78 45.9184C245.931 46.0456 245.008 46.1304 244.031 46.3318L240.975 47.0844C233.368 49.162 226.343 52.9625 220.446 58.191C214.548 63.4194 209.936 69.9351 206.968 77.2321C204 84.5291 202.756 92.4111 203.333 100.266C203.909 108.121 206.29 115.738 210.292 122.525C215.987 132.171 224.665 139.707 235.021 144C240.473 146.248 246.278 147.525 252.172 147.774C258.237 148.147 264.319 147.392 270.108 145.548L270.639 145.378H270.225L300.208 155.66L301.428 156.084L301.036 154.855L293.277 129.945L293.15 130.538C298.473 124.593 302.332 117.489 304.42 109.791C306.508 102.093 306.766 94.0139 305.175 86.1984C303.858 79.5937 301.231 73.319 297.448 67.7438C294.201 62.9934 290.188 58.8134 285.572 55.3736C283.592 53.8928 281.514 52.5471 279.353 51.3456C277.408 50.3168 275.406 49.4001 273.356 48.6002C271.6 47.905 269.799 47.3312 267.964 46.883C266.446 46.457 264.9 46.1348 263.337 45.9184C261.936 45.7382 260.694 45.5262 259.622 45.4308L256.895 45.346H255.229C255.042 45.3228 254.853 45.3228 254.666 45.346C254.849 45.3964 255.038 45.4249 255.229 45.4308L256.884 45.5686L259.591 45.7488C260.652 45.876 261.883 46.1198 263.263 46.3318C264.806 46.5818 266.331 46.9359 267.827 47.3918C269.636 47.858 271.409 48.4532 273.133 49.1726C275.135 49.9805 277.09 50.897 278.992 51.918C281.111 53.1492 283.146 54.5196 285.084 56.0202C289.59 59.4479 293.499 63.5953 296.652 68.295C300.308 73.7929 302.833 79.9614 304.082 86.4422C305.6 94.0795 305.318 101.965 303.259 109.475C301.199 116.984 297.419 123.913 292.216 129.711L291.982 129.976L292.089 130.316C294.562 138.308 297.151 146.65 299.815 155.268L300.654 154.462L270.682 144.074L270.469 144L270.257 144.064L269.737 144.233C264.094 146.028 258.168 146.765 252.257 146.406C246.515 146.165 240.858 144.928 235.541 142.749C225.423 138.579 216.933 131.244 211.342 121.846C204.803 110.755 202.739 97.5928 205.57 85.0361C208.401 72.4794 215.915 61.4711 226.583 54.25C231.039 51.258 235.944 48.9931 241.113 47.5402L244.127 46.7346C245.082 46.512 245.995 46.4166 246.833 46.2576C248.233 45.9743 249.652 45.7936 251.079 45.717L253.732 45.5156C254.046 45.515 254.359 45.483 254.666 45.4202Z" fill="#263238"></path> <path d="M224.514 99.9996L232.399 92.1237L247.619 105.628L277.474 76.9233L284.808 84.8097L246.494 120.818L224.514 99.9996Z" fill="#F54045"></path> </g> <defs> <clipPath id="clip0"> <rect width="750" height="500" fill="white"></rect> </clipPath> </defs> </svg> 